<?xml version="1.0" encoding="utf-8"?>
<!-- Generator: Adobe Illustrator 16.0.0, SVG Export Plug-In . SVG Version: 6.00 Build 0)  -->
<!DOCTYPE svg PUBLIC "-//W3C//DTD SVG 1.1//EN" "http://www.w3.org/Graphics/SVG/1.1/DTD/svg11.dtd">
<svg version="1.1" id="Layer_1" xmlns="http://www.w3.org/2000/svg" xmlns:xlink="http://www.w3.org/1999/xlink" x="0px" y="0px"
	 width="245px" height="78px" viewBox="0 0 245 78" enable-background="new 0 0 245 78" xml:space="preserve">
<g>
	<g>
		<path fill="#26BCB5" d="M113.876,27.873h-5.112l1.715,3.08l-14.141-5.881h9.868l-2.624-2.872h10.157L113.876,27.873z"/>
	</g>
	<g>
		<path fill="#535A6C" d="M44.277,41.305h-1.872v-3.197h8.321c6.306,0,10.423,3.744,10.423,10.193s-4.118,10.25-10.423,10.25h-4.492
			c-1.382,0-1.958-0.576-1.958-1.958L44.277,41.305L44.277,41.305z M48.683,55.354h1.843c4.089,0,6.709-2.445,6.709-7.054
			c0-4.55-2.678-6.997-6.709-6.997H48.05v13.418C48.049,55.124,48.28,55.354,48.683,55.354z"/>
		<path fill="#535A6C" d="M64.639,41.938c0-0.401-0.23-0.633-0.633-0.633h-1.238v-3.197h3.686c1.382,0,1.958,0.605,1.958,1.958
			v11.086c0,2.678,1.699,4.23,4.261,4.23c2.563,0,4.262-1.555,4.262-4.262V40.064c0-1.354,0.576-1.958,1.958-1.958h3.686v3.196
			h-1.238c-0.403,0-0.633,0.23-0.633,0.636v9.328c0,4.521-3.196,7.631-8.005,7.631c-4.866,0-8.062-3.109-8.062-7.631v-9.328H64.639
			L64.639,41.938z"/>
		<path fill="#535A6C" d="M83.705,55.354h0.893c0.403,0,0.605-0.229,0.634-0.633l1.324-16.614h3.916l4.204,9.732
			c0.489,1.181,1.007,2.735,1.007,2.735h0.058c0,0,0.519-1.555,1.008-2.735l4.204-9.732h3.916l1.325,16.614
			c0.029,0.402,0.23,0.633,0.633,0.633h0.893v3.196h-3.253c-1.354,0-1.814-0.575-1.929-1.958l-0.691-9.099
			c-0.115-1.354-0.029-3.167-0.029-3.167h-0.058c0,0-0.605,2.016-1.123,3.167l-3.397,7.544h-3.052l-3.397-7.544
			c-0.519-1.151-1.123-3.196-1.123-3.196H89.61c0,0,0.086,1.844-0.029,3.196l-0.662,9.099c-0.115,1.383-0.605,1.958-1.958,1.958
			h-3.254v-3.196H83.705z"/>
		<path fill="#26BCB5" d="M113.259,27.886h-3.328v-5.683h15.715c6.554,0,11.264,3.379,11.264,9.368c0,4.044-2.201,6.655-4.402,7.782
			v0.102c3.941,1.177,5.836,4.863,5.836,8.549c0,7.27-5.785,10.546-12.541,10.546h-9.063c-2.406,0-3.481-1.022-3.481-3.481V27.886z
			 M125.699,37.05c2.814,0,4.402-2.048,4.402-4.659s-1.537-4.505-4.506-4.505h-5.632v9.164H125.699z M121.092,52.868h5.223
			c3.275,0,5.119-2.201,5.119-5.272c0-3.021-1.895-5.222-5.119-5.222h-6.349v9.368C119.965,52.459,120.375,52.868,121.092,52.868z"
			/>
		<path fill="#535A6C" d="M143.498,53.08c0,0,2.104,2.419,4.953,2.419c1.555,0,2.938-0.835,2.938-2.419
			c0-3.484-9.617-3.196-9.617-9.561c0-3.313,2.879-5.757,6.824-5.757c2.389,0,6.074,1.123,6.074,4.031v1.9h-3.396v-0.922
			c0-0.949-1.354-1.584-2.707-1.584c-1.728,0-2.993,0.894-2.993,2.188c0,3.482,9.616,2.793,9.616,9.502
			c0,3.253-2.506,6.02-6.795,6.02c-4.521,0-7.025-3.168-7.025-3.168L143.498,53.08z"/>
		<path fill="#535A6C" d="M158.877,41.938c0-0.401-0.23-0.633-0.634-0.633h-1.237v-3.197h3.686c1.384,0,1.959,0.605,1.959,1.958
			v11.086c0,2.678,1.697,4.23,4.262,4.23s4.262-1.555,4.262-4.262V40.064c0-1.354,0.576-1.958,1.958-1.958h3.687v3.196h-1.237
			c-0.403,0-0.634,0.23-0.634,0.636v9.328c0,4.521-3.195,7.631-8.004,7.631c-4.866,0-8.063-3.109-8.063-7.631L158.877,41.938
			L158.877,41.938z"/>
		<path fill="#535A6C" d="M177.943,55.354h0.893c0.402,0,0.604-0.229,0.633-0.633l1.325-16.614h3.916l4.203,9.732
			c0.489,1.181,1.008,2.735,1.008,2.735h0.058c0,0,0.521-1.555,1.008-2.735l4.205-9.732h3.916l1.324,16.614
			c0.027,0.402,0.229,0.633,0.633,0.633h0.895v3.196h-3.254c-1.354,0-1.813-0.575-1.932-1.958l-0.688-9.099
			c-0.114-1.354-0.028-3.167-0.028-3.167h-0.059c0,0-0.604,2.016-1.122,3.167l-3.397,7.544h-3.053l-3.396-7.544
			c-0.52-1.151-1.123-3.196-1.123-3.196h-0.057c0,0,0.086,1.844-0.029,3.196l-0.662,9.099c-0.115,1.383-0.604,1.958-1.958,1.958
			h-3.253v-3.196H177.943z"/>
	</g>
	<line fill="none" stroke="#2AAAE2" x1="41.159" y1="61.398" x2="208.324" y2="61.398"/>
	<g>
		<path fill="#535A6C" d="M44.42,73.718v-1.405c0.84,0.313,1.789,0.47,2.848,0.47c1.285,0,1.928-0.431,1.928-1.289
			c0-0.625-0.395-0.938-1.184-0.938H46.7c-1.715,0-2.572-0.781-2.572-2.345c0-1.719,1.221-2.578,3.662-2.578
			c0.938,0,1.826,0.138,2.666,0.41v1.406c-0.84-0.313-1.729-0.47-2.666-0.47c-1.406,0-2.109,0.41-2.109,1.229
			c0,0.625,0.34,0.938,1.02,0.938h1.313c1.824,0,2.736,0.78,2.736,2.345c0,1.758-1.16,2.637-3.48,2.637
			C46.209,74.128,45.26,73.991,44.42,73.718z"/>
		<path fill="#535A6C" d="M54.467,70.775v-5.086h1.553v5.086c0,1.336,0.684,2.004,2.051,2.004c1.367,0,2.051-0.668,2.051-2.004
			v-5.086h1.553v5.086c0,2.233-1.201,3.353-3.604,3.353C55.668,74.128,54.467,73.011,54.467,70.775z"/>
		<path fill="#535A6C" d="M65.832,74.068v-8.379h1.611l2.842,6.356l2.783-6.356h1.553v8.379h-1.436v-5.836l-2.273,5.836h-1.324
			l-2.32-5.836v5.836H65.832z"/>
		<path fill="#535A6C" d="M83.522,69.893c0-2.841,1.402-4.261,4.207-4.261c2.762,0,4.143,1.42,4.143,4.261
			c0,2.823-1.381,4.235-4.143,4.235C85.05,74.128,83.647,72.716,83.522,69.893z M87.729,72.779c1.688,0,2.531-0.975,2.531-2.924
			c0-1.918-0.844-2.877-2.531-2.877c-1.73,0-2.596,0.959-2.596,2.877C85.134,71.807,85.999,72.779,87.729,72.779z"/>
		<path fill="#535A6C" d="M101.239,65.689v1.336h-3.961v2.108h3.762v1.39h-3.78v3.545h-1.523v-8.379H101.239z"/>
		<path fill="#535A6C" d="M111.58,74.068h-2.258l5.039-11.869h2.366l5.146,11.869h-2.366l-1.353-3.236h-3.943l0.755-1.909h2.391
			l-1.868-4.458L111.58,74.068z"/>
		<path fill="#535A6C" d="M127.912,65.689v7.03h3.328v1.349h-4.881v-8.379H127.912z"/>
		<path fill="#535A6C" d="M136.658,65.689v7.03h3.328v1.349h-4.881v-8.379H136.658z"/>
		<path fill="#535A6C" d="M148.889,74.068v-8.379h3.28c2.772,0,4.16,1.319,4.16,3.961c0,2.944-1.388,4.418-4.16,4.418H148.889z
			 M152.169,72.723c1.738,0,2.606-1.022,2.606-3.07c0-1.741-0.868-2.612-2.606-2.612h-1.729v5.685h1.729V72.723z"/>
		<path fill="#535A6C" d="M160.047,70.775v-5.086h1.553v5.086c0,1.336,0.686,2.004,2.051,2.004c1.367,0,2.053-0.668,2.053-2.004
			v-5.086h1.553v5.086c0,2.233-1.199,3.353-3.604,3.353S160.047,73.011,160.047,70.775z"/>
		<path fill="#535A6C" d="M171.412,74.068v-8.379h1.611l2.842,6.356l2.783-6.356h1.553v8.379h-1.436v-5.836l-2.273,5.836h-1.324
			l-2.32-5.836v5.836H171.412z"/>
		<path fill="#535A6C" d="M184.359,74.068v-8.379h3.926c1.594,0,2.391,0.649,2.391,1.951c0,0.952-0.52,1.635-1.559,2.045
			c1.109,0.207,1.664,0.842,1.664,1.903c0,1.652-0.873,2.479-2.619,2.479H184.359z M188.098,72.723c0.688,0,1.031-0.353,1.031-1.056
			c0-0.871-0.514-1.308-1.541-1.308h-0.469v-1.002c1.289-0.215,1.934-0.754,1.934-1.616c0-0.47-0.289-0.703-0.867-0.703h-2.271
			v5.685H188.098z"/>
		<path fill="#535A6C" d="M194.354,73.718v-1.405c0.84,0.313,1.789,0.47,2.849,0.47c1.284,0,1.928-0.431,1.928-1.289
			c0-0.625-0.396-0.938-1.185-0.938h-1.313c-1.715,0-2.57-0.781-2.57-2.345c0-1.719,1.221-2.578,3.662-2.578
			c0.938,0,1.824,0.138,2.666,0.41v1.406c-0.842-0.313-1.729-0.47-2.666-0.47c-1.406,0-2.109,0.41-2.109,1.229
			c0,0.625,0.34,0.938,1.02,0.938h1.313c1.823,0,2.735,0.78,2.735,2.345c0,1.758-1.16,2.637-3.479,2.637
			C196.143,74.128,195.191,73.991,194.354,73.718z"/>
		<path fill="#535A6C" d="M205.952,65.689V71.9h-1.554v-6.211H205.952z M205.952,72.634v1.437h-1.554v-1.437H205.952z"/>
	</g>
	<g>
		<path fill="#F2F2F3" d="M219.275,47.082h-1.225l0.41,0.736l-3.379-1.405h2.105l-0.375-0.687h6.283l1.605,0.92l-0.938,5.404h-2.367
			l0.427-2.478h-0.604l-0.439,2.478h-2.367L219.275,47.082z M222.077,48.161l0.192-1.079h-0.61l-0.191,1.079H222.077z"/>
	</g>
	<g>
		<path fill="#EA4B35" d="M234.824,44.802c0,0,0.75,11.544,3.693,13.702c2.946,2.156,4.95-0.688,5.969-1.695
			c0.273,2.502-1.821,8.379-10.563,7.024c-5.837-0.903-10.469,0.696-11.203,4.056c-5.615-4.291-8.392-20.095-8.392-20.095
			L234.824,44.802z"/>
		<g>
			<g>
				<g>
					<path fill="#2AAAE2" d="M229.5,39.067c-0.88-0.879-2.305-0.879-3.173,0.003c-0.863,0.878-0.863,2.29,0.006,3.161l0.453,0.455
						c1.12,1.127,2.229,2.26,3.325,3.399c1.091,1.136,2.18,2.288,3.193,3.438c0.243,0.287,0.493,0.571,0.717,0.85l0.033,0.038
						l-0.244,0.368c-0.836,1.215-1.816,2.463-2.791,3.688l-1.164,1.436l3.461,2.841l1.19-1.479c1.019-1.272,2.015-2.539,2.992-3.959
						l0.185-0.27l0.233-0.361c0.206-0.341,0.415-0.683,0.571-1.035c0.097-0.178,0.144-0.354,0.209-0.537
						c0.045-0.178,0.078-0.355,0.097-0.541l0.024-0.271l0.007-0.142c0.005-0.047-0.015-0.092-0.021-0.135
						c-0.048-0.185-0.078-0.355-0.13-0.533l-0.091-0.26c-0.029-0.091-0.053-0.174-0.111-0.259c-0.1-0.166-0.188-0.338-0.299-0.503
						l-0.352-0.479c-0.061-0.082-0.117-0.158-0.178-0.233l-0.158-0.194c-0.279-0.345-0.553-0.658-0.83-0.979
						c-1.1-1.247-2.204-2.421-3.321-3.589c-1.122-1.166-2.244-2.312-3.381-3.451L229.5,39.067z"/>
					<polygon fill="#F2F2F3" points="229.855,55.9 230.617,54.968 234.094,57.781 233.316,58.741 					"/>
					<path fill="#2AAAE2" d="M217.591,42.227c0.867-0.865,0.875-2.276,0.015-3.162c-0.861-0.883-2.289-0.889-3.17-0.01l-0.463,0.46
						c-1.13,1.129-2.248,2.267-3.369,3.422c-1.112,1.152-2.224,2.313-3.32,3.547c-0.273,0.311-0.551,0.625-0.825,0.961l-0.267,0.32
						c-0.121,0.153-0.236,0.314-0.354,0.476l-0.173,0.233l-0.15,0.25c-0.098,0.16-0.207,0.327-0.255,0.506l-0.096,0.263
						l-0.062,0.257c-0.037,0.182-0.105,0.359-0.076,0.547c0.025,0.362,0.063,0.725,0.215,1.079c0.137,0.354,0.316,0.705,0.521,1.049
						c0.047,0.089,0.098,0.171,0.146,0.255l0.121,0.196l0.181,0.276c0.938,1.438,1.905,2.719,2.888,4.011l1.159,1.504l3.519-2.76
						l-1.129-1.464c-0.938-1.236-1.893-2.5-2.687-3.723l-0.178-0.279l0.112-0.142c0.231-0.278,0.479-0.563,0.729-0.845
						c1.019-1.143,2.101-2.279,3.19-3.406c1.094-1.134,2.201-2.254,3.315-3.367L217.591,42.227z"/>
					<polygon fill="#F2F2F3" points="210.256,58.666 209.5,57.691 213.039,54.957 213.773,55.906 					"/>
					<path fill="#FFDA96" d="M226.387,38.035c-1.308-0.225-2.894-0.41-4.523-0.414c-1.633,0-3.225,0.192-4.538,0.417l4.364,5.573
						h0.334L226.387,38.035z"/>
					<path fill="#FFDA96" d="M225.087,36.141l0.24,1.731c0,0-1.483,1.8-3.474,1.8c-1.984,0-3.47-1.797-3.47-1.797l0.24-1.734
						H225.087z"/>
					<polygon fill="#9E6D8F" points="217.878,40.665 216.289,42.581 214.98,40.665 216.575,38.744 					"/>
					<polygon fill="#9E6D8F" points="228.727,40.665 227.43,42.581 225.838,40.665 227.141,38.744 					"/>
					<polygon fill="#9E6D8F" points="221.592,45.061 219.998,46.979 218.409,45.061 219.712,43.145 					"/>
					<polygon fill="#9E6D8F" points="217.878,45.061 216.289,46.979 214.98,45.061 216.289,43.145 					"/>
					<polygon fill="#9E6D8F" points="225.305,45.061 223.712,46.979 222.12,45.061 224.004,43.145 					"/>
					<polygon fill="#9E6D8F" points="228.727,45.061 227.43,46.979 225.838,45.061 227.43,43.145 					"/>
					<polygon fill="#9E6D8F" points="221.592,49.464 219.998,51.378 218.409,49.464 219.998,47.547 					"/>
					<polygon fill="#9E6D8F" points="217.878,49.464 216.289,51.378 214.98,49.464 216.289,47.547 					"/>
					<polygon fill="#9E6D8F" points="225.305,49.464 223.712,51.378 222.12,49.464 223.712,47.547 					"/>
					<polygon fill="#9E6D8F" points="228.727,49.464 227.43,51.378 225.838,49.464 227.43,47.547 					"/>
					<polygon fill="#9E6D8F" points="221.592,53.859 219.998,55.773 218.409,53.859 219.998,51.941 					"/>
					<polygon fill="#9E6D8F" points="217.878,53.859 216.289,55.773 214.98,53.859 216.289,51.941 					"/>
					<polygon fill="#9E6D8F" points="225.305,53.859 223.712,55.773 222.12,53.859 223.712,51.941 					"/>
					<polygon fill="#9E6D8F" points="228.727,53.859 227.43,55.773 225.838,53.859 227.43,51.941 					"/>
					<polygon fill="#773A19" points="219.318,77.273 212.387,77.273 212.387,76.113 212.98,75.05 219.318,76.085 					"/>
					<polygon fill="#773A19" points="224.6,77.273 231.535,77.273 231.535,76.113 230.939,75.05 224.6,76.085 					"/>
					<path fill="#EBC580" d="M225.084,37c0,0-1.031,0.503-3.244,0.503c-2.216,0-3.273-0.507-3.273-0.507s1.754-0.369,3.273-0.369
						C223.354,36.627,225.084,37,225.084,37"/>
					<path fill="#FFDA96" d="M213.129,26.349c0,1.438-0.913,2.6-2.045,2.6c-1.13,0-2.046-1.162-2.046-2.6
						c0-1.436,0.916-2.602,2.046-2.602C212.216,23.747,213.129,24.913,213.129,26.349"/>
					<path fill="#FFDA96" d="M234.633,26.349c0,1.438-0.915,2.6-2.045,2.6s-2.043-1.162-2.043-2.6c0-1.436,0.913-2.602,2.043-2.602
						S234.633,24.913,234.633,26.349"/>
					<path fill="#FFDA96" d="M232.451,18.862c0-4.941-4.006-8.947-8.943-8.947h-3.617c-4.938,0-8.945,4.006-8.945,8.947v9.453
						c0,4.941,4.009,8.948,8.945,8.948h3.617c4.938,0,8.943-4.007,8.943-8.948V18.862L232.451,18.862z"/>
					<path fill="#441C14" d="M217.501,29.075c-0.242,0-0.438-0.191-0.438-0.43v-0.487c0-0.376-0.305-0.682-0.679-0.682
						s-0.681,0.306-0.681,0.682v0.487c0,0.239-0.193,0.43-0.432,0.43c-0.239,0-0.435-0.191-0.435-0.43v-0.487
						c0-0.854,0.69-1.545,1.545-1.545s1.55,0.69,1.55,1.545v0.487C217.932,28.884,217.734,29.075,217.501,29.075"/>
					<path fill="#441C14" d="M228.439,29.075c-0.236,0-0.433-0.191-0.433-0.43v-0.487c0-0.376-0.304-0.682-0.683-0.682
						c-0.374,0-0.684,0.306-0.684,0.682v0.487c0,0.239-0.188,0.43-0.431,0.43s-0.437-0.191-0.437-0.43v-0.487
						c0-0.854,0.692-1.545,1.549-1.545c0.854,0,1.545,0.69,1.545,1.545v0.487C228.871,28.884,228.684,29.075,228.439,29.075"/>
					<path fill="#441C14" d="M221.854,35.257c-3.166,0-4.342-1.242-4.387-1.293c-0.16-0.177-0.146-0.452,0.03-0.612
						c0.171-0.161,0.444-0.148,0.604,0.024c0.021,0.022,1.025,1.018,3.752,1.018c2.746,0,3.746-1.009,3.752-1.018
						c0.164-0.172,0.438-0.182,0.609-0.02c0.176,0.164,0.188,0.433,0.028,0.608C226.193,34.015,225.02,35.257,221.854,35.257"/>
					<path fill="#544842" d="M236.25,15.989c0.182-0.877-0.338-1.402-0.745-2.32c-0.409-0.913-0.519-2.156-0.591-2.647
						c-0.077-0.489-0.482-0.846-0.814-0.846s-0.891,0.423-1.479-0.521c-0.594-0.951-1.857-0.951-1.857-0.951
						c-0.296-2.093-2.068-1.863-2.068-1.863c0.15-1.176-0.26-1.893-0.26-1.893c-0.668,0.616-2.033,0.354-2.033,0.354
						c0.479-0.75,0.105-1.534,0.105-1.534c-0.404,1.013-2.26,1.568-2.26,1.568c0.191-0.261,0.078-0.947,0.078-0.947
						c-0.262,0.752-1.483,0.913-1.483,0.913c0.185-1.078,1.189-1.634,1.189-1.634c-0.815,0.233-2.593,1.667-2.593,1.667
						c0.662-1.178,2.771-2.286,2.771-2.286c-1.775,0.296-3.217,1.697-3.217,1.697c-0.077-1.012,1.627-2.185,1.627-2.185
						c-0.854,0.125-1.775,0.91-1.775,0.91c0.659-0.946,1.775-1.568,1.775-1.568c-1.374,0.491-4.294,2.352-4.294,2.352
						c1.108-1.435,2.329-2.156,2.329-2.156c-0.864,0.186-1.682,0.726-2.178,1.118c0.625-0.838-0.004-1.997-0.004-1.997
						c0.219,0.75-0.67,1.467-0.67,1.467s-0.187,0.947,0-0.125c0.187-1.081-0.404-2.093-0.404-2.093
						c0.445,2.354-1.887,4.64-1.887,4.64c0.479-0.853,0.223-1.965,0.223-1.965c-0.112,0.462-0.559,1.771-1.301,2.582
						c-0.733,0.817-0.813,2.909-0.813,2.909c-0.671-1.499,0.261-2.742,0.261-2.742c-1.815,0.91-1.188,2.81-1.188,2.81
						c-0.668-1.081-0.035-2.548-0.035-2.548c-1.109,0.521-1.221,2.908-1.221,2.908c-1.075-0.032-2.106,1.275-2.594,1.991
						c-0.479,0.72-1.146,0.884-1.146,0.884c0.774,0.163,0.558,1.015,0.558,1.015c-1.708,0.649-1.482,1.992-1.482,1.992
						c0-0.683,0.814-1.046,0.814-1.046c-0.552,0.491-0.47,1.245-0.261,1.844c-0.118-0.714,0.371-1.088,0.371-1.088
						c0.036,0.291-0.106,0.789-0.308,1.262c0.006,0.011,0.006,0.021,0.012,0.029c-0.012,0-0.021,0-0.028,0.006
						c-0.228,0.509-0.521,0.985-0.748,1.116c-0.446,0.261-0.336,0.394-0.336,0.589c0,0.197-0.26,0.521-0.26,0.521
						c0.962,0.146,1.245-0.021,1.333-0.127c-0.245,0.627,0.854,2.367,0.854,3.592c0,1.275,0.663,0.847,1.037,1.734
						c0.364,0.883,0.262,0.686,1.188,2.318c0.922,1.635,0.771,2.285,0.771,2.285c0.48,1.018,0.446-4.766,0.294-5.517
						c-0.145-0.754,0.041-1.769,0.562-2.224c0.519-0.456,0.668-1.667,0.742-2.45c0.078-0.789,0.553-1.015,0.66-2.063
						c0.112-1.043,0.742-0.879,1.077-1.401c0.333-0.521,0.369-0.489,1.661,0.035c1.299,0.521,1.932,0.16,2.78-0.035
						c0.853-0.199,1.592-0.783,2.774-0.199c1.186,0.589,1.885-0.228,2.521-0.228c0.629,0,2.811,1.308,3.518,1.702
						c0.702,0.388,1.479,0.618,2.66,0.555c1.186-0.065,0.635,1.663,1.08,2.186c0.444,0.527,0.297,2.092,0.297,3.011
						c0,0.913,0.219,1.695,0.402,2.579c0.188,0.886,0.335,1.831,0.258,2.481c-0.068,0.656-0.107,1.475,0.039,1.111
						c0.148-0.353,0.891-1.009,1.105-1.434c0.223-0.425,1.08-1.501,1.299-2.093c0.224-0.587,0.41-1.667,0.41-1.667
						s0.892-1.305,0.924-2.614C236.32,18.41,236.057,16.874,236.25,15.989"/>
					<path fill="#603A17" d="M207.333,15.743c0.011,0.066,0.026,0.134,0.047,0.209c0.005-0.014,0.011-0.024,0.019-0.035
						C207.374,15.861,207.352,15.803,207.333,15.743"/>
					<g opacity="0.1">
						<g>
							<g>
								<g>
									<defs>
										<rect id="SVGID_1_" x="209.596" y="11.806" width="4.512" height="5.624"/>
									</defs>
									<clipPath id="SVGID_2_">
										<use xlink:href="#SVGID_1_"  overflow="visible"/>
									</clipPath>
									<path clip-path="url(#SVGID_2_)" fill="#FFFFFF" d="M210.704,11.806c0,0-0.745,0.068-0.817,0.951
										c0,0,0.562-0.488,1.147-0.1c0,0-1.075,0.197-1.438,1.147c0,0,0.516-0.362,1.182-0.034c0,0-0.777,0.161-0.777,1.308
										c0,0,0.48-0.491,1.036-0.462c0,0-0.626,0.758-0.294,1.341c0,0,0.261,0.784-0.188,1.473c0,0,1.188-0.884,1.188-1.309
										c0,0,1.076-1.238,2.367-1.535c0,0-0.998,0.029-1.814,0.391c0,0,0.227-0.878,0.781-1.141c0,0-0.889-0.1-1.299,0.322
										c0,0-0.334-0.389,0.224-0.556c0,0-0.519-0.161-0.699,0.032c0,0-0.042-0.682,0.699-0.386c0,0-0.187-0.395-0.886-0.262
										c0,0,0.105-0.558,0.517-0.491C211.628,12.495,211.512,11.775,210.704,11.806"/>
								</g>
							</g>
						</g>
					</g>
					<g opacity="0.1">
						<g>
							<g>
								<g>
									<defs>
										<rect id="SVGID_3_" x="214.15" y="0.47" width="17.217" height="13.04"/>
									</defs>
									<clipPath id="SVGID_4_">
										<use xlink:href="#SVGID_3_"  overflow="visible"/>
									</clipPath>
									<path clip-path="url(#SVGID_4_)" fill="#FFFFFF" d="M226.552,13.51c0,0,3.075-0.102,4.15-1.997c0,0,0.591-1.18,0.665-2.721
										c-0.338-0.088-0.59-0.088-0.59-0.088c-0.297-2.093-2.074-1.863-2.074-1.863c0.145-1.176-0.262-1.893-0.262-1.893
										c-0.662,0.616-2.034,0.354-2.034,0.354c0.485-0.749,0.108-1.533,0.108-1.533c-0.402,1.012-2.259,1.567-2.259,1.567
										c0.185-0.261,0.075-0.947,0.075-0.947c-0.262,0.752-1.482,0.913-1.482,0.913c0.188-1.078,1.188-1.634,1.188-1.634
										c-0.814,0.233-2.59,1.667-2.59,1.667c0.666-1.178,2.771-2.286,2.771-2.286c-1.771,0.296-3.216,1.697-3.216,1.697
										c-0.075-1.012,1.627-2.187,1.627-2.187c-0.852,0.127-1.777,0.912-1.777,0.912c0.668-0.946,1.777-1.568,1.777-1.568
										c-1.369,0.488-4.292,2.352-4.292,2.352c1.104-1.435,2.329-2.156,2.329-2.156c-0.871,0.186-1.684,0.726-2.174,1.118
										c0.619-0.838-0.014-1.997-0.014-1.997c0.225,0.75-0.666,1.467-0.666,1.467s-0.184,0.947,0-0.127
										c0.188-1.079-0.401-2.091-0.401-2.091c0.438,2.354-1.89,4.64-1.89,4.64c0.479-0.853,0.221-1.965,0.221-1.965
										c-0.113,0.462-0.559,1.771-1.297,2.582c-0.108,0.128-0.217,0.288-0.299,0.458c0.01,0.663,0.054,1.732,0.227,2.06
										c0,0,0.074-1.108,0.479-1.441c0,0-0.404,0.691,0.074,1.441c0,0,0.479-1.177,1.039-1.472c0,0-0.443,1.111-0.152,1.637
										c0,0,0.441-1.404,1.406-1.733c0,0-0.294,0.425-0.145,0.752c0,0,1.33-1.34,2.218-1.764c0,0-2.331,2.16-1.996,3.069
										c0,0,1.478-2.384,3.181-2.94c0,0-0.438,2.189-1.845,3.134c0,0,1.218-0.587,2.849-0.194c0,0-0.297,1.081-1.631,1.669
										c0,0,1.256,0.063,1.705-0.328c0,0,0.185,0.557-0.849,1.146c0,0,1.883,0.324,3.033-1.046c0,0,0.813-0.654,1.075-1.54
										c0,0,0.694,1.54-0.224,2.714c0,0,2.368-0.162,2.627-2.091c0,0,0.298,1.208-0.556,2.42c0,0,1.369,0.297,1.996-0.688
										C228.664,10.991,227.705,12.756,226.552,13.51"/>
								</g>
							</g>
						</g>
					</g>
					<path fill="#2AAAE2" d="M227.958,38.332c-1.476-0.335-3.753-0.737-6.124-0.737c-2.373,0-4.658,0.405-6.136,0.737
						c-0.939,0.208-1.685,1.215-1.685,2.186v15.783h15.625V40.518C229.641,39.547,228.889,38.54,227.958,38.332"/>
					<path fill="#FFDA96" d="M225.051,36.211l0.24,2.071c0,0-0.598,2.266-3.426,2.266c-2.829,0-3.426-2.266-3.426-2.266l0.24-2.071
						H225.051z"/>
					<path fill="#F2F2F3" d="M221.785,41.343c2.672,0,3.861-1.833,4.117-2.803l0.033-0.126l-0.033-0.313
						c-0.101-0.016-0.196-0.032-0.297-0.044l0.041,0.334l-0.021,0.079c-0.232,0.895-1.344,2.585-3.841,2.585
						s-3.601-1.69-3.839-2.585l-0.021-0.079l0.038-0.334c-0.099,0.017-0.192,0.029-0.288,0.045l-0.035,0.312l0.032,0.126
						C217.927,39.51,219.115,41.343,221.785,41.343"/>
					<path fill="#333333" d="M230.939,75.05l-1.291-18.946h-15.588l-1.08,18.946l6.338,1.035l0.963-15.362
						c0.039-0.633,0.588-1.149,1.226-1.149h0.888c0.635,0,1.186,0.519,1.227,1.149l0.979,15.362L230.939,75.05z"/>
					<path fill="#FFDA96" d="M233.096,59.002l0.223-0.261l-3.461-2.841l-0.209,0.259c-0.775,0.94-0.646,2.342,0.293,3.146
						C230.88,60.104,232.301,59.969,233.096,59.002"/>
					<path fill="#FFDA96" d="M213.98,56.164l-0.207-0.258l-3.52,2.76l0.209,0.266c0.775,0.988,2.191,1.146,3.15,0.373
						C214.573,58.523,214.73,57.129,213.98,56.164"/>
					<g opacity="0.5">
						<g>
							<g>
								<g>
									<defs>
										<rect id="SVGID_5_" x="211.161" y="24.001" width="21.223" height="7.614"/>
									</defs>
									<clipPath id="SVGID_6_">
										<use xlink:href="#SVGID_5_"  overflow="visible"/>
									</clipPath>
									<path clip-path="url(#SVGID_6_)" fill="#CDCCCC" d="M211.161,24.982l0.612,3.806l1.105,2.185l1.961,0.642l1.813-0.199
										l2.086-0.518l1.302-2.38l1.151-2.65l1.425-0.149l0.612,1.548l1.424,3.044l0.541,0.712l2.207,0.345l2.307,0.076l1.814-1.278
										l0.588-1.548l0.271-2.972l-0.467-0.956l-4.246-0.541l-2.035,0.146c0,0-2.179,0.564-2.21,0.638
										c-0.021,0.077-0.56,0.416-0.56,0.416l-1.571-0.021l-1.426-0.563l-2.425-0.763l-4.225,0.491L211.161,24.982z"/>
								</g>
							</g>
						</g>
					</g>
					<path fill="#3A1F59" d="M231.406,23.793c-1.406-0.077-4.477-0.14-5.84-0.015c-1.356,0.128-1.631,0.223-1.849,0.388
						c-0.209,0.165-0.305,0.413-0.687,0.47c-0.352,0.054-1.057,0.119-1.191,0.129c-0.142-0.011-0.846-0.075-1.197-0.129
						c-0.387-0.058-0.479-0.306-0.688-0.47c-0.214-0.165-0.49-0.26-1.847-0.388c-1.362-0.125-4.428-0.062-5.838,0.015
						c-1.408,0.076-2.416,0.476-2.416,0.476l0.076,1.751c0,0,0.176,0.08,0.453,0.149c0.275,0.067,0.891,2.318,1.32,3.465
						c0.431,1.144,1.074,1.584,2.079,1.897c2.022,0.385,3.967-0.112,4.555-0.339c0.589-0.229,1.001-0.85,1.396-1.555
						c0.396-0.706,1.121-2.544,1.351-3.011c0.165-0.341,0.563-0.466,0.758-0.507c0.191,0.041,0.583,0.166,0.757,0.507
						c0.223,0.467,0.948,2.305,1.348,3.011c0.396,0.705,0.802,1.326,1.393,1.555c0.588,0.227,2.53,0.724,4.553,0.339
						c1.006-0.313,1.653-0.753,2.082-1.897c0.438-1.147,1.039-3.398,1.322-3.465c0.273-0.069,0.449-0.149,0.449-0.149l0.08-1.751
						C233.823,24.269,232.814,23.87,231.406,23.793 M219.951,27.852c-0.415,1.36-0.833,2.378-1.633,2.785
						c-0.801,0.404-3.825,1.107-5.219,0.052c-0.277-0.212-1.078-1.06-1.227-2.712c-0.146-1.657-0.309-2.536,0.666-3.004
						c0,0,1.943-0.67,3.495-0.662c1.756,0.006,3.302,0.288,3.651,0.762C220.034,25.546,220.445,26.138,219.951,27.852
						 M231.801,27.977c-0.145,1.653-0.945,2.5-1.226,2.712c-1.39,1.055-4.421,0.352-5.216-0.052
						c-0.803-0.407-1.217-1.425-1.629-2.785c-0.498-1.714-0.088-2.306,0.263-2.78c0.349-0.474,1.896-0.755,3.649-0.762
						c1.551-0.008,3.494,0.662,3.494,0.662C232.109,25.441,231.945,26.32,231.801,27.977"/>
				</g>
			</g>
		</g>
		<g>
			<g>
				<path fill="#EA4B35" d="M226.585,40.891c0.864,0.346,1.065,0.243,1.065,0.243c0.99-0.549,1.688-1.384,2.396-2.316
					c0.354-0.467-0.354-0.442-0.563-0.629c-0.215-0.083-0.399-0.102-0.563-0.087c-0.316,0.028-0.521,0.189-0.521,0.189
					C227.292,39.201,226.585,40.891,226.585,40.891z"/>
			</g>
			<g>
				<path fill="#EA4B35" d="M227.094,38.053c0.605-0.447,1.609,0.089,1.609,0.089c-1.581,2.256-1.527,2.602-2.27,2.984
					c-0.137,0.069-0.567-0.188-0.567-0.188C226.734,38.739,227.094,38.053,227.094,38.053z"/>
			</g>
			<g>
				<path fill="#EA4B35" d="M225.288,37.824c0.959-0.798,1.806,0.227,1.806,0.229c0.086,0.104-0.186,0.566-0.232,0.679
					c-0.152,0.351-0.32,0.706-0.444,1.07c-0.16,0.47-0.435,1.554-1.188,1.271c-0.26-0.095-0.097-0.612-0.08-0.851
					c0.021-0.313,0.045-0.623,0.065-0.938c0.022-0.38,0.044-0.759,0.063-1.136C225.279,38.11,225.257,37.85,225.288,37.824z"/>
			</g>
			<g>
				<path fill="#EA4B35" d="M215.829,38.528c-0.283-0.427-0.522-0.649-0.728-0.749c-0.49-0.161-0.925,0.317-0.748,0.73
					c0.272,0.419,0.553,0.841,0.877,1.228c0.303,0.388,0.571,0.697,0.813,0.953c0.464,0.369,0.825,1.099,1.436,0.937
					c0.31-0.082,0.256-0.789-0.104-0.985c-0.171-0.234-0.399-0.546-0.627-0.859C216.289,39.155,215.829,38.528,215.829,38.528z"/>
			</g>
			<g>
				<path fill="#EA4B35" d="M217.191,37.753c-1.643-1.366-1.914,0.267-1.914,0.267c0.236,0.63,0.55,1.235,0.916,1.8
					c0.121,0.189,0.252,0.375,0.384,0.557c0.159,0.217,0.344,0.535,0.591,0.655c0.171,0.079,0.652,0.171,0.8,0.011
					c0.104-0.111,0.013-0.322-0.018-0.456c-0.083-0.362-0.163-0.724-0.245-1.088c-0.031-0.14-0.287-1.711-0.389-1.727
					L217.191,37.753z"/>
			</g>
			<g>
				<path fill="#EA4B35" d="M219.115,40.636c-0.021-0.518-0.295-1.171-0.36-1.437c-0.093-0.367-0.181-0.735-0.267-1.105
					c-0.021-0.089-0.027-0.352-0.094-0.421c-0.888-0.955-1.252,0.424-1.252,0.424c0.121,0.473,0.262,0.941,0.42,1.402
					c0.168,0.49,0.297,1.245,0.676,1.618c0.113,0.109,0.316,0.247,0.47,0.209C219.036,41.246,219.129,40.971,219.115,40.636z"/>
			</g>
		</g>
	</g>
	<g>
		<path fill="#F2F2F3" d="M220.023,46.493h-1.194l0.399,0.718l-3.295-1.371h2.057l-0.369-0.669h6.126l1.563,0.896l-0.914,5.271
			h-2.31l0.418-2.414h-0.586l-0.437,2.414h-2.307L220.023,46.493z M222.752,47.544l0.188-1.051h-0.596l-0.188,1.051H222.752z"/>
	</g>
	<g>
		<path fill="#F2F2F3" d="M15.094,46.805h-1.229l0.413,0.739l-3.401-1.415h2.122l-0.379-0.689h6.321l1.616,0.93l-0.942,5.438h-2.382
			l0.43-2.49h-0.606l-0.446,2.49h-2.382L15.094,46.805z M17.914,47.891l0.194-1.086h-0.615L17.3,47.891H17.914z"/>
	</g>
	<g>
		<path fill="#3D3C3B" d="M0.334,66.171c0.752-0.333,2.941-1.3,5.595,0.044c1.171,0.594,1.829,1.104,2.325,1.488
			c0.489,0.396,1.398,1.369,1.771,2.107c-0.751,0.338-0.878,0.482-1.839,0.789c-0.599,0.188-1.486,0.276-2.048,0.075
			c-0.56-0.196-1.163-0.426-1.896-1.063C3.749,69.212,1.844,66.529,0.334,66.171"/>
		<path fill="#8F806C" d="M9.481,70.352c-0.34,0-0.695-0.026-1.066-0.084c-0.723-0.119-1.219-0.803-1.1-1.528
			c0.117-0.726,0.801-1.22,1.528-1.104c4.301,0.694,5.974-6.609,5.991-6.688c0.16-0.717,0.87-1.172,1.589-1.012
			c0.718,0.164,1.171,0.875,1.01,1.592C17.349,61.907,15.398,70.352,9.481,70.352"/>
		<path fill="#8F806C" d="M29.561,27.576c0,0-2.033-9.885,0.479-20.546c0,0,0.938-3.878,2.929,0.386
			c1.991,4.266,7.277,16.228,3.734,25.33L29.561,27.576z"/>
		<path fill="#F19EA0" d="M31.308,26.521c0,0-1.107-6.758-0.39-15.195c0,0,0.521-4.337,1.729-1.302
			c2.766,6.964,4.471,15.409,2.888,19.741L31.308,26.521z"/>
		<path fill="#8F806C" d="M19.319,27.576c0,0,2.84-9.687,1.203-20.517c0,0-0.617-3.942-2.948,0.147
			c-2.335,4.086-8.58,15.573-5.796,24.934L19.319,27.576z"/>
		<path fill="#F19EA0" d="M17.664,26.385c0,0,1.655-6.647,1.636-15.115c0,0-0.167-4.366-1.615-1.442
			c-3.331,6.716-5.691,15.001-4.469,19.448L17.664,26.385z"/>
		<g opacity="0.39">
			<g>
				<g>
					<g>
						<defs>
							<rect id="SVGID_7_" x="12.504" y="49.32" width="23.996" height="14.978"/>
						</defs>
						<clipPath id="SVGID_8_">
							<use xlink:href="#SVGID_7_"  overflow="visible"/>
						</clipPath>
						<path clip-path="url(#SVGID_8_)" fill="#C6CCD6" d="M24.5,64.298c5.68,0,10.47-2.878,11.999-6.821
							C34.971,52.203,30.18,49.32,24.5,49.32c-5.678,0-10.469,2.883-11.997,8.154C14.032,61.42,18.822,64.298,24.5,64.298"/>
					</g>
				</g>
			</g>
		</g>
		<path fill="#AEA190" d="M24.5,64.298c5.68,0,10.47-2.878,11.999-6.821C34.971,52.203,30.18,49.32,24.5,49.32
			c-5.678,0-10.469,2.883-11.997,8.154C14.032,61.42,18.822,64.298,24.5,64.298"/>
		<path fill="#8F806C" d="M12.504,57.477c-0.333,1.146-0.518,2.395-0.518,3.76c0,5.262,3.249,9.521,12.514,9.521v-6.459
			C18.82,64.298,14.032,61.42,12.504,57.477"/>
		<path fill="#8F806C" d="M36.452,57.477c0.342,1.146,0.534,2.395,0.534,3.76c0,5.262-3.285,9.787-12.932,9.521v-6.459
			C29.925,64.298,34.87,61.42,36.452,57.477"/>
		<rect x="16.909" y="67.43" fill="#8F806C" width="5.215" height="7.188"/>
		<rect x="26.877" y="67.43" fill="#8F806C" width="5.214" height="7.188"/>
		<path fill="#3D3C3B" d="M19.463,75.547c0.218,0,0.398,0.184,0.398,0.398v0.998h4.193c0-2.504-2.03-4.536-4.539-4.536
			c-2.504,0-4.536,2.032-4.536,4.536h4.085v-0.998C19.064,75.729,19.24,75.547,19.463,75.547"/>
		<path fill="#3D3C3B" d="M29.43,75.547c0.221,0,0.397,0.184,0.397,0.398v0.998h4.195c0-2.504-2.031-4.536-4.537-4.536
			c-2.507,0-4.538,2.032-4.538,4.536h4.081v-0.998C29.029,75.729,29.207,75.547,29.43,75.547"/>
		<path fill="#585857" d="M25.25,20.08c0.117,0.709,0.04,1.284-0.094,1.819c-0.147,0.531-0.373,1.012-0.66,1.443
			c-0.29,0.436-0.649,0.823-1.084,1.157c-0.45,0.328-0.954,0.617-1.656,0.771c-0.123-0.713-0.047-1.29,0.09-1.825
			c0.149-0.529,0.369-1.009,0.662-1.44c0.295-0.434,0.653-0.817,1.092-1.154C24.042,20.524,24.544,20.234,25.25,20.08"/>
		<path fill="#585857" d="M27.602,21.183c0.122,0.709,0.046,1.287-0.092,1.821c-0.148,0.533-0.372,1.013-0.66,1.444
			c-0.292,0.433-0.65,0.821-1.087,1.156c-0.442,0.329-0.948,0.617-1.655,0.771c-0.121-0.711-0.045-1.287,0.092-1.824
			c0.145-0.531,0.371-1.01,0.662-1.44c0.291-0.432,0.652-0.821,1.088-1.154C26.395,21.629,26.899,21.339,27.602,21.183"/>
		<path fill="#AEA190" d="M38.168,37.312c-0.237-1.241-0.805-3.699-0.805-3.699c-1.082-5.861-6.313-10.385-13.097-10.385v37.09
			c8.96,0,15.414-6.143,15.414-13.713C39.681,43.014,38.807,40.711,38.168,37.312"/>
		<path fill="#AEA190" d="M10.782,37.312c0.231-1.241,0.792-3.699,0.792-3.699c1.065-5.861,6.224-10.385,12.914-10.385v37.09
			c-8.834,0-15.199-6.143-15.199-13.713C9.29,43.014,10.154,40.711,10.782,37.312"/>
		<path fill="#7C7468" d="M36.994,53.047c0,4.521-5.599,8.189-12.512,8.189c-6.914,0-12.516-3.668-12.516-8.189
			s5.602-8.188,12.516-8.188C31.395,44.859,36.994,48.523,36.994,53.047"/>
		<path fill="#3D3C3B" d="M18.812,51.784c0,0.991-0.806,1.797-1.798,1.797c-0.993,0-1.799-0.806-1.799-1.797
			s0.806-1.796,1.799-1.796C18.006,49.988,18.812,50.793,18.812,51.784"/>
		<path fill="#3D3C3B" d="M33.788,51.784c0,0.991-0.804,1.797-1.796,1.797c-0.991,0-1.799-0.806-1.799-1.797
			s0.808-1.796,1.799-1.796C32.984,49.988,33.788,50.793,33.788,51.784"/>
		<path fill="#F6E9E5" d="M21.923,59.643c0,1.114,0.509,1.094,1.171,1.176c0.734,0.054,1.172,0.054,1.172-1.176v-0.746
			c0,0.127-2.343-0.172-2.343-0.172V59.643z"/>
		<path fill="#F6E9E5" d="M27.05,59.643c0,1.114-0.507,1.094-1.174,1.176c-0.735,0.054-1.175,0.054-1.175-1.176v-0.746
			c0,0.127,2.349-0.172,2.349-0.172V59.643z"/>
		<path fill="#3D3C3B" d="M24.66,59.379c-5.262,0-8.943-2.736-9.097-2.854c-0.116-0.088-0.14-0.258-0.052-0.373
			c0.09-0.116,0.256-0.144,0.375-0.053c0.035,0.025,3.697,2.745,8.774,2.745c5.068,0,8.382-2.71,8.415-2.733
			c0.117-0.096,0.282-0.084,0.376,0.031c0.096,0.113,0.082,0.278-0.031,0.375C33.278,56.635,29.929,59.379,24.66,59.379"/>
		<g>
			<path fill="#8C6252" d="M27.645,33.392c-1.338,0-2.503,0.788-3.111,1.957c-0.679-1.809-2.331-3.083-4.272-3.083
				c-2.545,0-4.607,2.198-4.607,4.914s2.063,4.916,4.607,4.916c1.941,0,3.595-1.277,4.278-3.085c0.602,1.165,1.77,1.954,3.105,1.954
				c1.958,0,3.548-1.695,3.548-3.784C31.193,35.086,29.603,33.392,27.645,33.392"/>
			<path fill="#FFFFFF" d="M27.645,33.321c-1.338,0-2.503,0.742-3.111,1.835c-0.679-1.693-2.331-2.894-4.272-2.894
				c-2.545,0-4.607,2.064-4.607,4.61c0,2.545,2.063,4.61,4.607,4.61c1.941,0,3.595-1.2,4.278-2.896
				c0.602,1.095,1.77,1.833,3.105,1.833c1.958,0,3.548-1.589,3.548-3.549C31.193,34.91,29.603,33.321,27.645,33.321"/>
			<path fill="#4D1816" d="M21.411,36.979c0,0.608-0.494,1.101-1.101,1.101c-0.606,0-1.099-0.493-1.099-1.101
				c0-0.606,0.493-1.1,1.099-1.1C20.917,35.879,21.411,36.373,21.411,36.979"/>
			<path fill="#4D1816" d="M28.573,36.979c0,0.608-0.493,1.101-1.101,1.101c-0.609,0-1.1-0.493-1.1-1.101c0-0.606,0.491-1.1,1.1-1.1
				C28.08,35.879,28.573,36.373,28.573,36.979"/>
			<path fill="#FFFFFF" d="M21.095,36.543c0,0.21-0.169,0.377-0.375,0.377c-0.209,0-0.378-0.167-0.378-0.377
				c0-0.208,0.169-0.375,0.378-0.375C20.926,36.168,21.095,36.335,21.095,36.543"/>
			<path fill="#FFFFFF" d="M28.223,36.543c0,0.21-0.169,0.377-0.377,0.377c-0.207,0-0.374-0.167-0.374-0.377
				c0-0.208,0.167-0.375,0.374-0.375C28.054,36.168,28.223,36.335,28.223,36.543"/>
		</g>
	</g>
</g>
</svg>
